# xmcd CD database file
#
# Track frame offsets:
#	150
#	19327
#	38592
#	61552
#	81500
#	105612
#	130617
#	151005
#	167757
#	194660
#	212887
#
# Disc length: 3157 seconds
#
# Revision: 2
# Processed by: cddbd v1.5.2PL0 Copyright (c) Steve Scherf et al.
# Submitted via: CDex 1.70beta2
#
DISCID=8a0c530b
DTITLE=BIG LIFE - the 1st Recording
DYEAR=1994
DGENRE=Rock
TTITLE0=愛してなきゃ
TTITLE1=夏の日
TTITLE2=MY HOMETOWN
TTITLE3=海は僕を見てた
TTITLE4=窓
TTITLE5=今夜君の街へ
TTITLE6=Brick Road
TTITLE7=BAD TRAP?
TTITLE8=CRY
TTITLE9=Rev It Up!
TTITLE10=夜をこえて
EXTD=YEAR: 1994
EXTT0=
EXTT1=
EXTT2=
EXTT3=
EXTT4=
EXTT5=
EXTT6=
EXTT7=
EXTT8=
EXTT9=
EXTT10=
PLAYORDER=
